<?xml version="1.0" standalone="no"?>
<!DOCTYPE svg PUBLIC "-//W3C//DTD SVG 20010904//EN"
 "http://www.w3.org/TR/2001/REC-SVG-20010904/DTD/svg10.dtd">
<svg version="1.0" xmlns="http://www.w3.org/2000/svg"
 width="500.000000pt" height="500.000000pt" viewBox="0 0 500.000000 500.000000"
 preserveAspectRatio="xMidYMid meet">
<metadata>
Created by potrace 1.14, written by Peter Selinger 2001-2017
</metadata>
<g transform="translate(0.000000,500.000000) scale(0.100000,-0.100000)"
fill="#000000" stroke="none">
<path d="M2695 4130 c-9 -10 -27 -20 -39 -22 -11 -2 -21 -10 -21 -18 -1 -27
-25 -59 -40 -54 -8 3 -24 -1 -37 -10 -12 -9 -28 -16 -35 -16 -17 0 -53 31 -53
46 0 17 -32 27 -44 13 -8 -8 -8 -13 2 -16 16 -6 16 -43 -1 -43 -25 0 -46 -33
-36 -57 6 -17 16 -23 39 -23 29 0 30 -1 30 -51 0 -28 5 -60 11 -72 24 -47 72
-86 120 -98 27 -7 49 -18 49 -25 0 -13 -38 -30 -90 -39 -66 -12 -105 -29 -129
-54 -24 -26 -25 -26 -163 -23 -128 3 -138 2 -138 -15 0 -10 5 -75 11 -146 15
-157 9 -177 -51 -177 -45 0 -51 11 -16 33 41 27 42 107 1 107 -8 0 -15 5 -15
10 0 6 -28 10 -63 10 l-64 0 5 -82 5 -81 -24 6 c-13 4 -71 7 -127 7 l-104 0 4
228 c3 220 4 228 28 272 19 33 38 51 80 72 85 43 82 47 74 -102 -5 -99 -4
-130 5 -130 20 0 159 49 202 70 21 11 39 26 39 32 0 6 -39 52 -87 101 l-88 90
28 9 c15 5 27 17 27 25 0 15 -12 15 -52 -2 -13 -5 -18 -2 -18 9 0 22 -24 30
-49 16 -15 -8 -20 -17 -16 -33 5 -20 -1 -26 -49 -46 -72 -30 -102 -54 -129
-104 -20 -39 -22 -57 -25 -272 -3 -161 -7 -232 -15 -237 -7 -4 -85 -8 -174 -8
-132 0 -169 -3 -198 -17 -58 -28 -37 -38 85 -41 l113 -3 -7 -46 c-3 -25 -6
-65 -6 -89 l0 -44 -40 0 -40 0 0 -75 0 -75 35 0 c35 0 36 -1 31 -32 -3 -18
-13 -154 -21 -303 -9 -148 -18 -280 -20 -291 -4 -16 -15 -23 -45 -28 -23 -3
-43 -13 -46 -20 -3 -8 -15 -17 -27 -20 -18 -4 -19 -8 -9 -18 10 -10 245 -13
1175 -15 660 -2 1175 1 1192 6 17 5 22 10 12 10 -10 1 -15 5 -12 11 3 5 -2 21
-11 35 -13 19 -20 85 -35 312 -24 381 -25 353 10 353 28 0 28 1 34 67 3 38 3
71 0 75 -2 5 -22 8 -44 8 l-39 0 0 74 c0 41 -3 81 -6 90 -5 14 8 16 110 16
127 0 148 11 81 43 -31 15 -74 17 -315 17 -154 0 -280 2 -280 5 0 2 9 19 20
37 39 64 23 108 -63 174 -87 67 -113 83 -129 84 -9 0 -18 5 -20 10 -2 6 -17
12 -33 13 -42 3 -76 47 -37 47 15 1 15 2 -2 12 -14 8 -24 8 -36 0 -10 -6 -22
-7 -31 -1 -10 6 -10 9 -1 9 31 0 6 21 -58 47 -38 15 -69 31 -67 35 1 4 17 17
36 30 19 13 46 45 60 71 23 46 24 52 13 107 -7 32 -10 64 -7 72 3 8 -1 21 -10
28 -10 9 -12 16 -5 24 15 19 -7 82 -34 99 -22 15 -25 15 -41 -3z m-141 -703
c7 -87 7 -88 -14 -77 -11 6 -26 19 -32 29 -7 11 -19 16 -30 13 -10 -2 -18 1
-18 7 0 6 -5 11 -11 11 -6 0 -24 14 -40 31 -21 23 -29 41 -29 69 l0 37 72 2
c40 1 75 4 77 7 9 9 17 -36 25 -129z m-483 -89 c2 -22 -2 -43 -12 -52 -5 -6
-9 4 -9 27 0 33 18 55 21 25z m-278 -190 c3 -13 9 -53 12 -90 l7 -68 -141 0
-141 0 0 53 c0 28 3 69 6 90 l7 37 122 0 c119 0 123 -1 128 -22z m424 -10 c26
-17 49 -32 51 -33 2 -2 -27 -31 -64 -66 -86 -83 -94 -100 -94 -199 0 -45 -4
-100 -10 -123 -5 -23 -26 -127 -46 -231 -39 -207 -38 -215 21 -222 45 -4 70
-46 37 -59 -34 -14 -82 -14 -82 0 0 8 -7 11 -20 8 -23 -6 -21 -14 -54 227 -14
102 -39 280 -55 395 -17 116 -33 238 -37 273 l-7 62 156 0 156 0 48 -32z m933
25 c0 -3 -5 -35 -11 -70 -7 -42 -16 -63 -25 -63 -10 0 -14 14 -14 54 0 67 7
86 31 86 10 0 19 -3 19 -7z m320 -83 l0 -90 -141 0 -141 0 6 48 c4 26 9 66 13
90 l5 42 129 0 129 0 0 -90z m-350 -117 c0 -35 -3 -44 -10 -33 -13 20 -13 80
0 80 6 0 10 -21 10 -47z m-1247 -385 c20 -145 40 -287 43 -315 l7 -53 -134 0
c-74 -1 -173 -3 -221 -6 -75 -5 -88 -4 -88 9 0 39 30 528 35 575 l6 52 158 0
157 0 37 -262z m1617 225 c0 -21 7 -148 15 -283 8 -135 15 -265 15 -289 l0
-43 -97 6 c-54 4 -129 9 -168 12 -134 8 -228 24 -147 24 18 0 32 2 32 5 0 3
-9 33 -20 66 l-21 61 31 226 c18 125 33 233 36 240 2 9 44 12 164 12 l160 0 0
-37z m-557 -126 c-34 -57 -64 -71 -168 -75 -52 -2 -105 -2 -118 2 -21 5 -23 9
-18 48 l6 43 132 0 c87 0 136 4 144 12 6 6 18 9 25 6 12 -4 11 -11 -3 -36z
m-484 17 c3 -2 -1 -27 -7 -55 -7 -28 -12 -75 -12 -104 0 -71 -44 -193 -76
-207 -14 -7 -26 -26 -35 -55 -21 -76 -27 -29 -23 171 5 184 6 192 30 229 25
37 26 38 72 31 26 -3 49 -8 51 -10z m625 -3 c5 0 6 -27 3 -58 -9 -89 -36 -266
-41 -271 -3 -2 -64 3 -137 12 -72 8 -136 13 -140 10 -9 -5 -10 7 -12 124 l-1
67 63 7 c75 8 104 25 131 77 19 39 20 39 72 36 29 -1 57 -3 62 -4z m-370 -118
c4 -3 6 -42 4 -86 -4 -60 -9 -83 -22 -92 -16 -12 -105 -30 -110 -23 -2 2 6 52
18 111 l21 108 40 -7 c22 -3 44 -9 49 -11z m18 -226 c-6 -19 -7 -16 -12 13 -3
19 -4 44 -1 55 4 16 6 13 12 -13 4 -18 4 -43 1 -55z m88 -45 c42 -12 66 -25
68 -35 3 -15 -13 -16 -150 -14 l-153 2 -3 27 c-4 32 6 35 103 37 41 0 97 -7
135 -17z m220 -9 c0 -40 -12 -53 -45 -48 -17 2 -40 4 -52 4 -17 1 -23 7 -23
24 0 13 -5 28 -12 35 -9 9 4 12 60 12 72 0 72 0 72 -27z m-625 -33 c3 -5 1
-10 -4 -10 -6 0 -11 5 -11 10 0 6 2 10 4 10 3 0 8 -4 11 -10z m-25 -55 c0 -3
-11 -5 -25 -5 -17 0 -23 4 -19 15 5 11 11 12 25 4 10 -5 19 -12 19 -14z"/>
<path d="M3893 1908 c-13 -6 -25 -20 -29 -31 -7 -21 -50 -281 -59 -352 -2 -22
-7 -52 -11 -67 -3 -16 -2 -28 2 -28 4 0 45 12 91 27 70 23 83 30 83 49 0 16
11 25 43 38 53 20 57 20 71 0 10 -13 22 -11 101 17 50 17 96 34 102 38 8 4
-45 58 -149 151 -199 179 -200 180 -245 158z m107 -237 l20 -29 -30 -11 -30
-10 0 45 c0 49 7 50 40 5z"/>
<path d="M3160 1824 c-30 -2 -83 -6 -117 -10 l-63 -6 0 -253 0 -253 193 -6
c645 -20 849 -17 909 15 48 26 -34 51 -210 65 -79 6 -87 5 -140 -22 -39 -20
-74 -29 -114 -31 -35 -1 -56 2 -53 7 3 5 -1 7 -9 4 -8 -3 -38 6 -68 20 -29 14
-49 26 -45 26 4 0 -4 16 -18 35 -15 19 -24 38 -21 44 3 5 1 11 -5 13 -7 2 -12
26 -12 59 0 58 19 107 59 150 l24 25 -35 41 c-54 63 -134 85 -275 77z m110
-174 c34 -34 27 -83 -21 -135 -23 -25 -45 -45 -50 -45 -5 0 -9 40 -9 90 0 74
3 91 18 99 25 15 40 13 62 -9z"/>
<path d="M1983 1802 c-10 -10 -70 -117 -133 -239 l-115 -221 -3 59 -3 59 -84
0 -85 0 0 175 0 175 -105 0 -105 0 0 -255 0 -255 300 0 300 0 6 25 c6 23 10
25 70 25 59 0 65 -2 76 -25 11 -25 12 -25 145 -25 l134 0 -25 43 c-13 23 -74
132 -136 242 -61 110 -121 208 -132 218 -26 22 -83 22 -105 -1z m70 -294 l16
-48 -40 0 c-21 0 -39 3 -39 8 0 19 35 101 41 95 3 -5 13 -29 22 -55z"/>
<path d="M2390 1555 l0 -255 100 0 100 0 0 84 c0 92 3 96 66 96 l34 0 0 -90 0
-90 105 0 105 0 0 255 0 255 -105 0 -105 0 0 -84 c0 -92 -3 -96 -66 -96 l-34
0 0 90 0 90 -100 0 -100 0 0 -255z"/>
<path d="M3539 1696 c-2 -2 -3 -74 -1 -159 l3 -155 67 -4 67 -3 -3 163 -3 162
-63 0 c-34 0 -65 -2 -67 -4z"/>
<path d="M290 1390 l0 -90 35 0 c25 0 35 5 35 15 0 12 3 13 19 3 15 -9 23 -9
35 1 13 11 16 11 16 -3 0 -12 10 -16 40 -16 l40 0 0 90 c0 64 -4 90 -12 90 -7
0 -31 -19 -54 -41 l-42 -41 -45 41 c-24 22 -49 41 -56 41 -7 0 -11 -29 -11
-90z"/>
<path d="M537 1473 c-4 -3 -7 -44 -7 -90 l0 -83 35 0 c30 0 35 4 35 23 1 20 2
21 14 5 16 -22 25 -22 48 -1 17 15 18 15 18 -5 0 -19 6 -22 40 -22 l41 0 -3
87 c-2 56 -7 88 -15 90 -7 3 -31 -13 -55 -35 l-43 -40 -45 39 c-47 41 -52 43
-63 32z"/>
<path d="M777 1473 c-4 -3 -7 -44 -7 -90 l0 -83 141 0 140 0 -3 28 c-2 21 -9
28 -30 30 -27 3 -28 5 -28 63 l0 60 -37 -3 -38 -3 -3 -61 -3 -60 -29 4 c-29 4
-30 6 -30 63 l0 59 -33 0 c-19 0 -37 -3 -40 -7z"/>
<path d="M1060 1390 l0 -90 65 0 c62 0 65 1 65 24 0 20 -6 25 -32 29 l-33 4
33 1 c27 2 32 6 32 26 0 20 -6 25 -32 29 l-33 4 33 1 c29 2 32 5 32 32 l0 30
-65 0 -65 0 0 -90z"/>
<path d="M1211 1342 c-12 -23 4 -52 29 -52 23 0 43 32 34 54 -8 22 -51 20 -63
-2z"/>
<path d="M2197 1083 c-16 -15 -6 -44 18 -53 35 -13 31 -24 -5 -16 -34 6 -40
-8 -10 -24 14 -8 26 -8 41 0 25 14 21 42 -9 55 -31 14 -28 27 6 19 24 -7 26
-6 13 9 -14 17 -42 22 -54 10z"/>
<path d="M2510 1076 c0 -8 -10 -16 -22 -18 -29 -4 -37 -46 -13 -65 31 -22 55
1 55 52 0 25 -4 45 -10 45 -5 0 -10 -6 -10 -14z m-2 -54 c2 -7 -3 -12 -12 -12
-9 0 -16 7 -16 16 0 17 22 14 28 -4z"/>
<path d="M2287 1066 c-9 -23 8 -71 26 -74 9 -2 17 1 17 7 0 6 -4 11 -10 11
-14 0 -12 28 2 32 9 3 8 9 -4 21 -20 21 -24 21 -31 3z"/>
<path d="M2757 1066 c-9 -23 8 -71 26 -74 9 -2 17 1 17 7 0 6 -4 11 -10 11
-14 0 -12 28 2 32 9 3 8 9 -4 21 -20 21 -24 21 -31 3z"/>
<path d="M4810 1050 c0 -17 -7 -20 -45 -20 -38 0 -45 -3 -45 -20 0 -13 -7 -20
-19 -20 -14 0 -18 5 -14 20 7 28 -21 26 -35 -2 l-11 -23 0 23 c-1 27 -21 30
-21 2 0 -11 -7 -20 -15 -20 -10 0 -15 -10 -15 -32 0 -18 -5 -40 -10 -48 -8
-12 -10 -10 -10 9 0 20 -2 21 -15 11 -13 -10 -15 -9 -15 9 0 20 -9 25 -37 22
-7 -1 -13 5 -13 14 0 8 -4 15 -10 15 -5 0 -10 -16 -10 -35 0 -19 -4 -35 -10
-35 -5 0 -10 -14 -10 -31 0 -17 -4 -28 -10 -24 -5 3 -10 26 -10 51 0 24 -4 44
-10 44 -5 0 -10 9 -10 20 0 11 -4 20 -10 20 -5 0 -10 -9 -10 -20 0 -12 -7 -20
-16 -20 -10 0 -14 -7 -12 -23 1 -14 -6 -32 -17 -43 -19 -19 -19 -19 -11 1 5
11 11 30 13 43 5 20 1 22 -31 22 -33 0 -36 -2 -36 -30 0 -16 -4 -30 -10 -30
-5 0 -10 14 -10 30 0 17 -4 30 -10 30 -5 0 -10 7 -10 15 0 8 -5 15 -10 15 -6
0 -10 7 -8 16 2 10 -3 19 -9 21 -9 3 -13 -7 -13 -31 0 -20 -4 -36 -10 -36 -5
0 -10 -24 -11 -52 0 -46 -2 -50 -11 -30 -11 22 -38 31 -38 12 0 -5 -8 -10 -17
-9 -11 0 -13 3 -5 6 6 2 12 20 12 39 0 32 -2 34 -35 34 -34 0 -35 -1 -35 -40
0 -38 -1 -39 -20 -28 -12 8 -20 24 -20 40 0 15 -4 30 -10 33 -6 4 -10 -5 -10
-19 0 -14 -4 -26 -10 -26 -5 0 -10 -9 -10 -20 0 -14 -7 -20 -21 -20 -11 0 -17
-4 -14 -10 3 -5 -3 -10 -14 -10 -21 0 -26 18 -21 78 1 12 -3 22 -9 22 -6 0
-11 -12 -11 -26 0 -28 -21 -54 -43 -54 -9 0 -17 -5 -19 -12 -2 -6 -12 -9 -21
-5 -13 5 -17 19 -17 57 0 34 -4 49 -11 44 -6 -3 -9 -15 -6 -25 3 -11 2 -19 -2
-19 -4 0 -6 -18 -4 -40 2 -22 -2 -40 -7 -40 -6 0 -10 9 -10 20 0 16 -7 20 -30
20 -16 0 -30 5 -30 10 0 6 -7 10 -15 10 -10 0 -15 -10 -15 -30 0 -23 -5 -30
-19 -30 -11 0 -21 -5 -23 -10 -2 -6 -13 -2 -25 9 -27 25 -33 18 -33 -36 0 -24
-4 -43 -10 -43 -5 0 -10 13 -10 28 0 16 -8 34 -20 42 -11 8 -20 22 -20 32 0
13 -8 18 -25 18 -14 0 -25 -4 -25 -10 0 -5 -9 -10 -20 -10 -11 0 -20 -4 -20
-10 0 -5 -11 -10 -25 -10 -14 0 -25 5 -25 10 0 6 -4 10 -8 10 -5 0 -7 -26 -4
-57 l5 -58 -23 20 c-12 11 -26 29 -31 40 -6 17 -8 15 -8 -11 -1 -39 -11 -48
-27 -26 -11 15 -13 14 -19 -11 -7 -26 -8 -26 -21 -10 -7 10 -14 35 -14 56 0
50 -23 45 -30 -7 -3 -20 -9 -37 -15 -38 -5 -1 -19 -10 -29 -20 -25 -23 -36 -9
-36 45 0 30 -4 37 -19 37 -11 0 -21 6 -24 13 -2 7 -8 8 -13 3 -5 -5 -4 -11 4
-13 18 -7 15 -49 -5 -73 -21 -24 -33 -26 -33 -5 0 8 -4 15 -10 15 -5 0 -10
-11 -10 -25 0 -47 -20 -25 -21 23 -1 26 -1 50 0 55 0 4 -8 7 -19 7 -22 0 -28
-25 -7 -33 10 -4 10 -6 0 -6 -9 -1 -13 -17 -13 -46 0 -38 -3 -45 -20 -45 -16
0 -20 7 -20 36 0 31 -3 35 -22 32 -14 -2 -22 -9 -20 -18 2 -7 0 -25 -4 -39 -7
-24 -8 -23 -13 14 -5 31 -10 40 -26 40 -17 0 -21 -9 -26 -55 l-6 -55 -1 52
c-1 28 -6 55 -12 58 -11 7 -25 -39 -15 -54 3 -6 -1 -11 -9 -11 -9 0 -16 -5
-16 -11 0 -5 -4 -7 -10 -4 -6 4 -10 -5 -10 -19 0 -14 -4 -26 -10 -26 -5 0 -10
9 -10 20 0 11 -4 20 -10 20 -5 0 -10 9 -10 19 0 11 -4 23 -10 26 -5 3 -10 -3
-10 -15 0 -12 -4 -19 -9 -16 -14 9 -20 -16 -9 -37 11 -22 -14 -24 -32 -3 -6 8
-18 12 -26 9 -9 -3 -14 2 -14 16 0 12 -4 21 -10 21 -5 0 -10 -13 -10 -29 0
-16 -7 -34 -14 -41 -22 -17 -60 -9 -64 15 -7 48 -13 65 -22 60 -5 -3 -7 -20
-4 -38 5 -34 -23 -85 -33 -59 -8 22 -30 13 -46 -19 -14 -30 -15 -30 -22 -10
-8 27 -25 27 -25 1 0 -11 -6 -20 -14 -20 -9 0 -12 7 -9 20 3 11 0 20 -6 20 -6
0 -11 -9 -11 -20 0 -11 -4 -20 -10 -20 -5 0 -10 9 -10 20 0 27 -18 25 -22 -2
-2 -16 -9 -22 -22 -20 -14 3 -18 -1 -14 -16 6 -23 -6 -47 -19 -39 -5 4 -8 31
-5 62 4 46 2 55 -12 55 -11 0 -16 -9 -16 -30 0 -29 -1 -30 -50 -30 -38 0 -50
-4 -50 -15 0 -8 -4 -15 -10 -15 -5 0 -10 -13 -10 -29 0 -17 -4 -33 -10 -36 -5
-3 -10 1 -10 9 0 19 -16 21 -24 4 -5 -10 -7 -10 -12 0 -7 16 -31 16 -37 0 -4
-10 -8 -10 -15 0 -7 11 -10 10 -16 -3 -3 -9 -6 -25 -6 -36 0 -25 -16 -25 -23
0 -3 14 -11 17 -31 14 -21 -4 -26 -11 -26 -34 0 -28 -2 -29 -50 -29 -41 0 -56
-5 -75 -25 -14 -13 -25 -31 -25 -40 0 -9 -7 -23 -15 -32 -14 -14 -18 -13 -40
11 -40 43 -75 31 -75 -26 0 -17 -5 -20 -39 -16 -36 3 -40 1 -52 -29 -9 -23
-19 -33 -33 -33 -20 1 -20 1 -3 14 12 9 14 16 8 21 -14 8 -41 -18 -41 -39 0
-9 -8 -16 -20 -16 -11 0 -20 -3 -20 -7 -1 -24 -18 -35 -38 -24 -14 7 -23 8
-27 1 -10 -17 -25 -11 -25 10 0 11 -4 20 -10 20 -5 0 -10 -13 -10 -30 0 -16
-4 -30 -10 -30 -5 0 -10 7 -10 15 0 8 -4 15 -10 15 -5 0 -10 -11 -10 -25 0
-14 -4 -25 -10 -25 -5 0 -10 -9 -10 -21 0 -36 -24 -49 -89 -49 -34 0 -61 -4
-61 -10 0 -7 675 -10 2005 -10 l2005 0 0 516 0 516 -26 -5 c-14 -2 -31 2 -40
10 -21 21 -44 -6 -44 -51 0 -20 -4 -36 -10 -36 -5 0 -10 16 -10 35 0 25 -8 44
-25 60 -29 30 -35 31 -35 5z m-493 -212 c-3 -7 -5 -2 -5 12 0 14 2 19 5 13 2
-7 2 -19 0 -25z m-830 -54 c-3 -3 -12 -4 -19 -1 -8 3 -5 6 6 6 11 1 17 -2 13
-5z m-200 -96 c-3 -7 -5 -2 -5 12 0 14 2 19 5 13 2 -7 2 -19 0 -25z m-60 0
c-3 -8 -6 -5 -6 6 -1 11 2 17 5 13 3 -3 4 -12 1 -19z m-356 -31 c-8 -8 -11 -3
-11 19 1 25 2 27 11 11 8 -14 8 -22 0 -30z m1616 -99 c-3 -7 -5 -2 -5 12 0 14
2 19 5 13 2 -7 2 -19 0 -25z m-1820 -100 c-3 -8 -6 -5 -6 6 -1 11 2 17 5 13 3
-3 4 -12 1 -19z m-432 -98 c3 -5 1 -10 -4 -10 -6 0 -11 5 -11 10 0 6 2 10 4
10 3 0 8 -4 11 -10z m-738 -182 c-3 -7 -5 -2 -5 12 0 14 2 19 5 13 2 -7 2 -19
0 -25z"/>
<path d="M2355 1050 c-7 -12 4 -53 17 -61 5 -3 20 -4 34 -1 21 4 25 9 22 36
-3 34 -21 39 -26 6 -5 -29 -22 -25 -22 5 0 25 -14 33 -25 15z"/>
<path d="M2567 1054 c-14 -14 -7 -54 12 -64 25 -13 53 13 49 44 -3 21 -46 35
-61 20z"/>
<path d="M2660 1025 c0 -19 5 -35 10 -35 6 0 10 12 10 26 0 31 23 28 28 -4 4
-29 22 -28 22 1 0 29 -18 47 -47 47 -20 0 -23 -5 -23 -35z"/>
<path d="M4570 1040 c0 -5 7 -10 15 -10 8 0 15 5 15 10 0 6 -7 10 -15 10 -8 0
-15 -4 -15 -10z"/>
<path d="M3691 934 c0 -11 3 -14 6 -6 3 7 2 16 -1 19 -3 4 -6 -2 -5 -13z"/>
<path d="M2630 896 c0 -14 4 -27 8 -30 5 -3 6 8 4 25 -5 35 -12 38 -12 5z"/>
<path d="M3291 884 c0 -11 3 -14 6 -6 3 7 2 16 -1 19 -3 4 -6 -2 -5 -13z"/>
<path d="M3330 884 c0 -9 5 -14 12 -12 18 6 21 28 4 28 -9 0 -16 -7 -16 -16z"/>
<path d="M2592 860 c0 -14 2 -19 5 -12 2 6 2 18 0 25 -3 6 -5 1 -5 -13z"/>
<path d="M2663 763 c9 -2 25 -2 35 0 9 3 1 5 -18 5 -19 0 -27 -2 -17 -5z"/>
<path d="M2380 691 c-7 -15 -7 -21 0 -21 12 0 25 28 17 36 -3 3 -10 -4 -17
-15z"/>
<path d="M1883 535 c0 -22 2 -30 4 -17 2 12 2 30 0 40 -3 9 -5 -1 -4 -23z"/>
</g>
</svg>
